HIERARCHY
ROOT Hips
{
    OFFSET   0.000000   0.000000   0.000000
    CHANNELS 6 Xposition Yposition Zposition Zrotation Xrotation Yrotation
    JOINT Chest
    {
        OFFSET   0.000000   8.007230   0.000000
        CHANNELS 3 Zrotation Xrotation Yrotation
        JOINT Chest2
        {
            OFFSET   0.000000  22.077100   0.000000
            CHANNELS 3 Zrotation Xrotation Yrotation
            JOINT Neck
            {
                OFFSET   0.000000  23.255100   0.000000
                CHANNELS 3 Zrotation Xrotation Yrotation
                JOINT Head
                {
                    OFFSET   0.000000  14.370100   1.956600
                    CHANNELS 3 Zrotation Xrotation Yrotation
                    End Site
                    {
                        OFFSET   0.000000  19.566000   0.000000
                    }
                }
            }
            JOINT LeftCollar
            {
                OFFSET   3.911900  19.017000  -0.467063
                CHANNELS 3 Zrotation Xrotation Yrotation
                JOINT LeftShoulder
                {
                    OFFSET  10.383700   0.000000   0.000000
                    CHANNELS 3 Zrotation Xrotation Yrotation
                    JOINT LeftElbow
                    {
                        OFFSET  26.662100   0.001193   0.000980
                        CHANNELS 3 Zrotation Xrotation Yrotation
                        JOINT LeftWrist
                        {
                            OFFSET  28.869000  -0.000059  -0.000082
                            CHANNELS 3 Zrotation Xrotation Yrotation
                            JOINT LeftFinger0
                            {
                                OFFSET   2.044650  -2.323450   3.252850
                                CHANNELS 3 Zrotation Xrotation Yrotation
                                JOINT LeftFinger01
                                {
                                    OFFSET   3.088130   0.000000   0.000000
                                    CHANNELS 3 Zrotation Xrotation Yrotation
                                    JOINT LeftFinger02
                                    {
                                        OFFSET   2.639460   0.000000   0.000000
                                        CHANNELS 3 Zrotation Xrotation Yrotation
                                        End Site
                                        {
                                            OFFSET   2.582190   0.000000   0.000000
                                        }
                                    }
                                }
                            }
                            JOINT LeftFinger1
                            {
                                OFFSET   8.364480   0.000000   3.252850
                                CHANNELS 3 Zrotation Xrotation Yrotation
                                JOINT LeftFinger11
                                {
                                    OFFSET   4.646930   0.000000   0.000000
                                    CHANNELS 3 Zrotation Xrotation Yrotation
                                    JOINT LeftFinger12
                                    {
                                        OFFSET   2.323470   0.000000   0.000000
                                        CHANNELS 3 Zrotation Xrotation Yrotation
                                        End Site
                                        {
                                            OFFSET   2.273050   0.000000   0.000000
                                        }
                                    }
                                }
                            }
                            JOINT LeftFinger2
                            {
                                OFFSET   8.364490   0.000016   1.078090
                                CHANNELS 3 Zrotation Xrotation Yrotation
                                JOINT LeftFinger21
                                {
                                    OFFSET   5.111610   0.000000   0.000000
                                    CHANNELS 3 Zrotation Xrotation Yrotation
                                    JOINT LeftFinger22
                                    {
                                        OFFSET   2.788150   0.000016   0.000000
                                        CHANNELS 3 Zrotation Xrotation Yrotation
                                        End Site
                                        {
                                            OFFSET   2.727660   0.000000   0.000000
                                        }
                                    }
                                }
                            }
                            JOINT LeftFinger3
                            {
                                OFFSET   7.899780   0.000015  -1.078090
                                CHANNELS 3 Zrotation Xrotation Yrotation
                                JOINT LeftFinger31
                                {
                                    OFFSET   4.646930   0.000000   0.000000
                                    CHANNELS 3 Zrotation Xrotation Yrotation
                                    JOINT LeftFinger32
                                    {
                                        OFFSET   2.323470   0.000000   0.000000
                                        CHANNELS 3 Zrotation Xrotation Yrotation
                                        End Site
                                        {
                                            OFFSET   2.273050   0.000000   0.000000
                                        }
                                    }
                                }
                            }
                            JOINT LeftFinger4
                            {
                                OFFSET   7.435090   0.000000  -3.252850
                                CHANNELS 3 Zrotation Xrotation Yrotation
                                JOINT LeftFinger41
                                {
                                    OFFSET   3.717550   0.000000   0.000000
                                    CHANNELS 3 Zrotation Xrotation Yrotation
                                    JOINT LeftFinger42
                                    {
                                        OFFSET   1.858770   0.000000   0.000000
                                        CHANNELS 3 Zrotation Xrotation Yrotation
                                        End Site
                                        {
                                            OFFSET   1.818440   0.000000   0.000000
                                        }
                                    }
                                }
                            }
                        }
                    }
                }
            }
            JOINT RightCollar
            {
                OFFSET  -3.911910  19.017000  -0.467062
                CHANNELS 3 Zrotation Xrotation Yrotation
                JOINT RightShoulder
                {
                    OFFSET -10.383700   0.000014   0.000000
                    CHANNELS 3 Zrotation Xrotation Yrotation
                    JOINT RightElbow
                    {
                        OFFSET -26.662100   0.001225   0.001091
                        CHANNELS 3 Zrotation Xrotation Yrotation
                        JOINT RightWrist
                        {
                            OFFSET -28.869000  -0.000020  -0.000085
                            CHANNELS 3 Zrotation Xrotation Yrotation
                            JOINT RightFinger0
                            {
                                OFFSET  -2.044650  -2.323490   3.252850
                                CHANNELS 3 Zrotation Xrotation Yrotation
                                JOINT RightFinger01
                                {
                                    OFFSET  -3.088130   0.000000   0.000000
                                    CHANNELS 3 Zrotation Xrotation Yrotation
                                    JOINT RightFinger02
                                    {
                                        OFFSET  -2.639460   0.000000   0.000000
                                        CHANNELS 3 Zrotation Xrotation Yrotation
                                        End Site
                                        {
                                            OFFSET  -2.582190   0.000000   0.000000
                                        }
                                    }
                                }
                            }
                            JOINT RightFinger1
                            {
                                OFFSET  -8.364480   0.000000   3.252850
                                CHANNELS 3 Zrotation Xrotation Yrotation
                                JOINT RightFinger11
                                {
                                    OFFSET  -4.646930   0.000000   0.000000
                                    CHANNELS 3 Zrotation Xrotation Yrotation
                                    JOINT RightFinger12
                                    {
                                        OFFSET  -2.323470   0.000000   0.000000
                                        CHANNELS 3 Zrotation Xrotation Yrotation
                                        End Site
                                        {
                                            OFFSET  -2.273050   0.000000   0.000000
                                        }
                                    }
                                }
                            }
                            JOINT RightFinger2
                            {
                                OFFSET  -8.364480   0.000000   1.078090
                                CHANNELS 3 Zrotation Xrotation Yrotation
                                JOINT RightFinger21
                                {
                                    OFFSET  -5.111620   0.000000   0.000000
                                    CHANNELS 3 Zrotation Xrotation Yrotation
                                    JOINT RightFinger22
                                    {
                                        OFFSET  -2.788160   0.000000   0.000000
                                        CHANNELS 3 Zrotation Xrotation Yrotation
                                        End Site
                                        {
                                            OFFSET  -2.727660   0.000000   0.000000
                                        }
                                    }
                                }
                            }
                            JOINT RightFinger3
                            {
                                OFFSET  -7.899780   0.000000  -1.078090
                                CHANNELS 3 Zrotation Xrotation Yrotation
                                JOINT RightFinger31
                                {
                                    OFFSET  -4.646930   0.000000   0.000000
                                    CHANNELS 3 Zrotation Xrotation Yrotation
                                    JOINT RightFinger32
                                    {
                                        OFFSET  -2.323470   0.000000   0.000000
                                        CHANNELS 3 Zrotation Xrotation Yrotation
                                        End Site
                                        {
                                            OFFSET  -2.273050   0.000000   0.000000
                                        }
                                    }
                                }
                            }
                            JOINT RightFinger4
                            {
                                OFFSET  -7.435090   0.000000  -3.252850
                                CHANNELS 3 Zrotation Xrotation Yrotation
                                JOINT RightFinger41
                                {
                                    OFFSET  -3.717550   0.000000   0.000000
                                    CHANNELS 3 Zrotation Xrotation Yrotation
                                    JOINT RightFinger42
                                    {
                                        OFFSET  -1.858760   0.000000   0.000000
                                        CHANNELS 3 Zrotation Xrotation Yrotation
                                        End Site
                                        {
                                            OFFSET  -1.818440   0.000000   0.000000
                                        }
                                    }
                                }
                            }
                        }
                    }
                }
            }
        }
    }
    JOINT LeftHip
    {
        OFFSET   9.783030   0.000000   0.000000
        CHANNELS 3 Zrotation Xrotation Yrotation
        JOINT LeftKnee
        {
            OFFSET   0.000063 -41.789100   0.000608
            CHANNELS 3 Zrotation Xrotation Yrotation
            JOINT LeftAnkle
            {
                OFFSET   0.000048 -41.133200  -0.000184
                CHANNELS 3 Zrotation Xrotation Yrotation
                JOINT LeftToe
                {
                    OFFSET   0.000000  -6.358960  14.674500
                    CHANNELS 3 Zrotation Xrotation Yrotation
                    End Site
                    {
                        OFFSET   0.000000   0.000000   3.913200
                    }
                }
            }
        }
    }
    JOINT RightHip
    {
        OFFSET  -9.783030   0.000000   0.000000
        CHANNELS 3 Zrotation Xrotation Yrotation
        JOINT RightKnee
        {
            OFFSET   0.000071 -41.789100   0.001239
            CHANNELS 3 Zrotation Xrotation Yrotation
            JOINT RightAnkle
            {
                OFFSET   0.000037 -41.133200  -0.000166
                CHANNELS 3 Zrotation Xrotation Yrotation
                JOINT RightToe
                {
                    OFFSET   0.000000  -6.358960  14.674500
                    CHANNELS 3 Zrotation Xrotation Yrotation
                    End Site
                    {
                        OFFSET   0.000000   0.000000   3.913200
                    }
                }
            }
        }
    }
}
MOTION
Frames: 5
Frame Time:   0.016667
  1.005490  89.483800   3.319860  -3.366260  -9.214510  -3.414610   0.638745   6.024150   0.851820   1.196800  12.056800   1.649430   2.038490  -0.909796   0.033611   3.351460  -1.837780   3.421590  -6.636830  -0.343993   1.311320 -71.189700  17.842500  -4.995000  -0.925479  -6.416280 -20.254600  16.460400 -15.832700  10.319400  41.284100  37.524600 -63.034100 -33.851500  -0.003607   0.001549 -11.925700   0.000283  -0.014267 -32.526300   5.078110  -7.902060 -26.891000  -0.001920   0.001750 -18.823700  -0.003807   0.000740 -28.760100  -0.878565   1.600520 -40.853900  -0.006654   0.004554 -27.208700  -0.001159  -0.000650 -28.626600  -0.874741   1.602610 -37.876100  -0.001870   0.006525 -25.226800  -0.001490  -0.002718 -32.127200  -0.971234   1.546050 -48.209200  -0.002880   0.004414 -32.107300  -0.003166   0.001356  13.245800   1.550230   8.421080  64.434500  16.065200  -2.273310  -5.186010   0.373870  19.942500 -11.434500 -13.402700   2.454090 -44.871200  43.052000  78.496800  31.942700   0.008352  -0.005118  10.971400   0.005003  -0.002096  34.463800   8.223920  11.772400  28.892500  -0.008968  -0.005510  20.224800  -0.007502   0.000513  28.476800   0.397721   0.733078  35.950900   0.003532   0.004039  23.943200   0.009759   0.001523  27.556400  -1.934550  -3.701510  29.799800  -0.004856   0.004426  19.846700   0.004132   0.004367  33.625000  -2.315220  -3.476320  50.542900   0.012313   0.002493  33.661600   0.001962  -0.000257   3.191630  13.082900   3.679630   1.111600   0.212969   5.797070  -2.198620  -4.629000   3.055430   0.000000   0.000000   0.000000   2.565540  12.646200  -5.743180   0.105587   0.536126  -8.964340  -1.262370  -4.902020   2.055120   0.000000   0.000000   0.000000
  1.012550  89.483800   3.309600  -3.369360  -9.214130  -3.423590   0.638773   6.028420   0.856985   1.196260  12.065500   1.659830   2.049500  -0.918054   0.033609   3.369460  -1.854510   3.425420  -6.636660  -0.352543   1.306540 -71.166100  17.872600  -5.000500  -0.921767  -6.404040 -20.317300  16.469900 -15.827500  10.323400  41.291900  37.530000 -63.042200 -33.851300  -0.003605   0.001552 -11.925600   0.000283  -0.014265 -32.523400   5.073030  -7.895140 -26.891000  -0.001916   0.001752 -18.823700  -0.003810   0.000741 -28.760000  -0.881401   1.605700 -40.848400  -0.006651   0.004559 -27.205100  -0.001158  -0.000645 -28.626400  -0.877573   1.607790 -37.876000  -0.001865   0.006530 -25.226600  -0.001489  -0.002714 -32.127000  -0.974400   1.551030 -48.209300  -0.002879   0.004417 -32.107400  -0.003168   0.001358  13.261200   1.538410   8.427910  64.415100  16.090900  -2.258350  -5.178690   0.379650  19.927800 -11.442900 -13.402400   2.418120 -44.861200  43.051900  78.477500  31.959600   0.008356  -0.005114  10.979800   0.005001  -0.002090  34.477300   8.195680  11.730300  28.898300  -0.008974  -0.005512  20.228900  -0.007506   0.000517  28.479000   0.372922   0.687356  35.958900   0.003524   0.004032  23.948600   0.009754   0.001520  27.558200  -1.961330  -3.752250  29.818100  -0.004864   0.004423  19.858900   0.004129   0.004361  33.638800  -2.347970  -3.523420  50.566500   0.012312   0.002490  33.677300   0.001959  -0.000255   3.191430  13.082100   3.691620   1.113420   0.214583   5.796940  -2.201910  -4.623280   3.051190   0.000000   0.000000   0.000000   2.563450  12.641400  -5.736000   0.105928   0.539111  -8.970610  -1.261490  -4.895260   2.063920  -0.000000   0.000000   0.000000
  1.020240  89.483800   3.292740  -3.375350  -9.213720  -3.436090   0.638651   6.034860   0.868684   1.194690  12.078500   1.683400   2.070260  -0.929799   0.033608   3.403750  -1.878100   3.429270  -6.636430  -0.366505   1.294530 -71.132000  17.915700  -5.012900  -0.910692  -6.380200 -20.411600  16.488000 -15.822000  10.331900  41.299700  37.535400 -63.050400 -33.850900  -0.003600   0.001554 -11.925400   0.000286  -0.014263 -32.518000   5.062080  -7.879980 -26.891000  -0.001902   0.001756 -18.823700  -0.003814   0.000743 -28.759600  -0.887855   1.617470 -40.840100  -0.006644   0.004575 -27.199600  -0.001156  -0.000631 -28.626000  -0.884013   1.619580 -37.875900  -0.001855   0.006547 -25.226300  -0.001484  -0.002703 -32.126700  -0.981555   1.562390 -48.209400  -0.002878   0.004427 -32.107400  -0.003173   0.001364  13.289600   1.511240   8.437230  64.387700  16.131500  -2.243560  -5.163960   0.385486  19.890200 -11.456400 -13.398200   2.361100 -44.851200  43.051700  78.458200  31.982700   0.008360  -0.005111  10.991400   0.004997  -0.002084  34.502600   8.162280  11.670800  28.913000  -0.008994  -0.005515  20.239100  -0.007517   0.000522  28.483600   0.337230   0.621512  35.988400   0.003502   0.004014  23.968300   0.009741   0.001516  27.564300  -2.001450  -3.827720  29.863800  -0.004887   0.004413  19.889300   0.004120   0.004349  33.671200  -2.397530  -3.593110  50.619500   0.012307   0.002480  33.712600   0.001951  -0.000252   3.194340  13.077300   3.711180   1.114660   0.221759   5.796660  -2.211130  -4.614640   3.041630   0.000000   0.000000  -0.000000   2.559700  12.627900  -5.725110   0.106777   0.551348  -8.980150  -1.259950  -4.888500   2.075900   0.000000   0.000000   0.000000
  1.020920  89.483700   3.279610  -3.382410  -9.213750  -3.441260   0.638322   6.037770   0.884633   1.192260  12.084500   1.715580   2.092790  -0.934782   0.034096   3.440910  -1.887470   3.409100  -6.635650  -0.376374   1.276650 -71.115400  17.932700  -5.028360  -0.889812  -6.346350 -20.466800  16.506500 -15.822100  10.342100  41.285400  37.511300 -63.005200 -33.850800  -0.003592   0.001551 -11.925300   0.000291  -0.014273 -32.509700   5.047070  -7.859100 -26.884500  -0.001875   0.001760 -18.819100  -0.003814   0.000746 -28.759100  -0.897052   1.634250 -40.834100  -0.006634   0.004603 -27.195500  -0.001151  -0.000607 -28.625400  -0.893176   1.636370 -37.876200  -0.001843   0.006578 -25.226400  -0.001471  -0.002690 -32.126100  -0.991644   1.578640 -48.209300  -0.002876   0.004445 -32.107400  -0.003180   0.001375  13.317900   1.474670   8.440400  64.377100  16.156500  -2.250790  -5.146430   0.376197  19.829600 -11.448100 -13.383400   2.320550 -44.833200  43.047400  78.462300  31.989700   0.008349  -0.005122  10.994700   0.004990  -0.002089  34.540300   8.157070  11.645800  28.942300  -0.009030  -0.005517  20.259600  -0.007533   0.000524  28.489700   0.320643   0.590793  36.052500   0.003465   0.003983  24.011000   0.009719   0.001517  27.577100  -2.024380  -3.869340  29.939000  -0.004923   0.004394  19.939400   0.004103   0.004333  33.721500  -2.427150  -3.630470  50.697600   0.012294   0.002459  33.764700   0.001942  -0.000252   3.204170  13.061900   3.727770   1.110290   0.242392   5.796480  -2.227220  -4.611600   3.028040  -0.000000   0.000000   0.000000   2.559490  12.597800  -5.717440   0.108455   0.585371  -8.986270  -1.258280  -4.892440   2.079820  -0.000000   0.000000   0.000000
  1.021080  89.483600   3.266950  -3.389390  -9.214240  -3.442890   0.637548   6.041540   0.904090   1.188550  12.092200   1.754880   2.116580  -0.937689   0.034920   3.479900  -1.892760   3.368200  -6.634390  -0.387280   1.253400 -71.104400  17.947300  -5.050180  -0.866716  -6.323430 -20.507300  16.528100 -15.825100  10.354600  41.265300  37.478400 -62.942600 -33.850700  -0.003586   0.001548 -11.925300   0.000296  -0.014294 -32.505900   5.031140  -7.836140 -26.877900  -0.001841   0.001766 -18.814500  -0.003816   0.000750 -28.758500  -0.907509   1.653310 -40.830900  -0.006620   0.004641 -27.193400  -0.001144  -0.000574 -28.624800  -0.903597   1.655450 -37.878000  -0.001827   0.006620 -25.226800  -0.001454  -0.002671 -32.125400  -1.003150   1.597090 -48.209200  -0.002875   0.004469 -32.107300  -0.003188   0.001388  13.349600   1.427450   8.440990  64.368400  16.185300  -2.267500  -5.120760   0.357348  19.758700 -11.425900 -13.358500   2.285670 -44.822100  43.045900  78.479200  31.992900   0.008338  -0.005137  10.996400   0.004981  -0.002098  34.567500   8.155830  11.632700  28.963400  -0.009078  -0.005520  20.274400  -0.007556   0.000527  28.495900   0.310586   0.572099  36.122400   0.003416   0.003945  24.057500   0.009692   0.001517  27.591100  -2.041400  -3.899470  30.018400  -0.004972   0.004368  19.992300   0.004082   0.004313  33.774200  -2.449760  -3.656970  50.778600   0.012276   0.002430  33.818600   0.001929  -0.000251   3.216570  13.050500   3.740300   1.103010   0.257464   5.795840  -2.246060  -4.605710   3.012940   0.000000   0.000000   0.000000   2.563920  12.576500  -5.713480   0.109642   0.610140  -8.990400  -1.257270  -4.896390   2.080550  -0.000000   0.000000  -0.000000
